sfk_cyclingleg_x_-0.1_y_-0.05_states
version=1
nRows=9
nColumns=53
inDegrees=yes

# SIMM Motion File Header:
name sfk_cyclingleg_x_-0.1_y_-0.05_states
datacolumns 53
datarows 9
otherdata 1
range 0.23501577 0.23613990
endheader
time	/jointset/bb/crank_angle/value	/jointset/bb/crank_angle/speed	/jointset/spindle/pedal_angle_r/value	/jointset/spindle/pedal_angle_r/speed	/jointset/ground_pelvis/pelvis_tilt/value	/jointset/ground_pelvis/pelvis_tilt/speed	/jointset/ground_pelvis/pelvis_list/value	/jointset/ground_pelvis/pelvis_list/speed	/jointset/ground_pelvis/pelvis_rotation/value	/jointset/ground_pelvis/pelvis_rotation/speed	/jointset/ground_pelvis/pelvis_tx/value	/jointset/ground_pelvis/pelvis_tx/speed	/jointset/ground_pelvis/pelvis_ty/value	/jointset/ground_pelvis/pelvis_ty/speed	/jointset/ground_pelvis/pelvis_tz/value	/jointset/ground_pelvis/pelvis_tz/speed	/jointset/hip_r/hip_angle_r/value	/jointset/hip_r/hip_angle_r/speed	/jointset/hip_r/hip_adduction_r/value	/jointset/hip_r/hip_adduction_r/speed	/jointset/hip_r/hip_rotation_r/value	/jointset/hip_r/hip_rotation_r/speed	/jointset/knee_r/knee_angle_r/value	/jointset/knee_r/knee_angle_r/speed	/jointset/knee_r/tib_tx_r/value	/jointset/knee_r/tib_tx_r/speed	/jointset/knee_r/tib_ty_r/value	/jointset/knee_r/tib_ty_r/speed	/jointset/tib_pat_r/pat_angle_r/value	/jointset/tib_pat_r/pat_angle_r/speed	/jointset/tib_pat_r/pat_tx_r/value	/jointset/tib_pat_r/pat_tx_r/speed	/jointset/tib_pat_r/pat_ty_r/value	/jointset/tib_pat_r/pat_ty_r/speed	/jointset/ankle_r/ankle_angle_r/value	/jointset/ankle_r/ankle_angle_r/speed	/jointset/subtalar_r/subtalar_angle_r/value	/jointset/subtalar_r/subtalar_angle_r/speed	/jointset/mtp_r/mtp_angle_r/value	/jointset/mtp_r/mtp_angle_r/speed	/forceset/bifemlh_r/activation	/forceset/bifemlh_r/fiber_length	/forceset/bifemsh_r/activation	/forceset/bifemsh_r/fiber_length	/forceset/glut_max2_r/activation	/forceset/glut_max2_r/fiber_length	/forceset/vas_int_r/activation	/forceset/vas_int_r/fiber_length	/forceset/med_gas_r/activation	/forceset/med_gas_r/fiber_length	/forceset/tib_ant_r/activation	/forceset/tib_ant_r/fiber_length
      0.23501577	   -122.97502870	   -480.13863232	    139.42594233	    544.89390809	      0.00000000	      0.00000000	      0.00000000	      0.00000000	     -0.00000000	     -0.00000000	     -0.10000000	     -0.00000000	     -0.05000000	     -0.00000000	      0.00000000	      0.00000000	     50.28511489	   -213.88686446	      4.38211650	     -0.28000972	      1.09975555	     21.56469900	    -55.78405775	    253.40690988	      0.00447343	     -0.02354646	     -0.47469809	      0.07451043	     17.29207794	     -7.49723033	      0.04404564	      0.07293878	     -0.02307985	     -0.00944761	     22.36317327	     24.89449844	      0.00000000	      0.00000000	     -0.00000000	      0.00000000	     -0.00481616	      0.13146696	     -0.00481616	      0.16851556	     -0.00481616	      0.13847794	     -0.00481616	      0.12655720	     -0.00481616	      0.14740691	     -0.00481616	      0.11633610
      0.23515722	   -123.04294470	   -480.13863232	    139.50301299	    544.82264527	      0.00000000	      0.00000000	      0.00000000	      0.00000000	     -0.00000000	     -0.00000000	     -0.10000000	     -0.00000000	     -0.05000000	     -0.00000000	      0.00000000	      0.00000000	     50.25486454	   -213.82841439	      4.38207676	     -0.28175532	      1.10280545	     21.55834391	    -55.74822594	    253.22563681	      0.00447009	     -0.02357999	     -0.47468755	      0.07443028	     17.29101630	     -7.51339812	      0.04405595	      0.07286789	     -0.02308119	     -0.00944266	     22.36669836	     24.94734386	      0.00000000	      0.00000000	     -0.00000000	      0.00000000	     -0.00483437	      0.13145610	     -0.00483437	      0.16853608	     -0.00483437	      0.13845706	     -0.00483437	      0.12653077	     -0.00483437	      0.14742063	     -0.00483437	      0.11633315
      0.23529702	   -123.11006766	   -480.13863232	    139.57917377	    544.75185087	      0.00000000	      0.00000000	      0.00000000	      0.00000000	     -0.00000000	     -0.00000000	     -0.10000000	     -0.00000000	     -0.05000000	     -0.00000000	      0.00000000	      0.00000000	     50.22497558	   -213.77021421	      4.38203725	     -0.28347566	      1.10581884	     21.55201059	    -55.71283778	    253.04581045	      0.00446679	     -0.02361287	     -0.47467715	      0.07435090	     17.28996482	     -7.52934307	      0.04406613	      0.07279766	     -0.02308251	     -0.00943776	     22.37018962	     24.99944544	      0.00000000	      0.00000000	     -0.00000000	      0.00000000	     -0.00485237	      0.13144536	     -0.00485237	      0.16855635	     -0.00485237	      0.13843642	     -0.00485237	      0.12650466	     -0.00485237	      0.14743232	     -0.00485237	      0.11633022
      0.23543838	   -123.17793925	   -480.13863232	    139.65617390	    544.67989712	      0.00000000	      0.00000000	      0.00000000	      0.00000000	     -0.00000000	     -0.00000000	     -0.10000000	     -0.00000000	     -0.05000000	     -0.00000000	      0.00000000	      0.00000000	     50.19476157	   -213.71092624	      4.38199706	     -0.28521023	      1.10886494	     21.54555330	    -55.67708054	    252.86329870	      0.00446345	     -0.02364586	     -0.47466665	      0.07427047	     17.28889935	     -7.54543103	      0.04407641	      0.07272650	     -0.02308384	     -0.00943277	     22.37372722	     25.05199898	      0.00000000	      0.00000000	     -0.00000000	      0.00000000	     -0.00487057	      0.13143450	     -0.00487057	      0.16857683	     -0.00487057	      0.13841555	     -0.00487057	      0.12647828	     -0.00487057	      0.14744597	     -0.00487057	      0.11632725
      0.23557812	   -123.24503457	   -480.13863232	    139.73228332	    544.60839876	      0.00000000	      0.00000000	      0.00000000	      0.00000000	     -0.00000000	     -0.00000000	     -0.10000000	     -0.00000000	     -0.05000000	      0.00000000	      0.00000000	      0.00000000	     50.16490139	   -213.65188148	      4.38195709	     -0.28692004	      1.11187530	     21.53911679	    -55.64175768	    252.68220008	      0.00446015	     -0.02367822	     -0.47465628	      0.07419078	     17.28784383	     -7.56130017	      0.04408657	      0.07265598	     -0.02308516	     -0.00942782	     22.37723164	     25.10382285	      0.00000000	      0.00000000	     -0.00000000	      0.00000000	     -0.00488857	      0.13142375	     -0.00488857	      0.16859707	     -0.00488857	      0.13839491	     -0.00488857	      0.12645220	     -0.00488857	      0.14745768	     -0.00488857	      0.11632431
      0.23571939	   -123.31286257	   -480.13863232	    139.80921368	    544.53574604	      0.00000000	      0.00000000	      0.00000000	      0.00000000	     -0.00000000	     -0.00000000	     -0.10000000	     -0.00000000	     -0.05000000	      0.00000000	      0.00000000	      0.00000000	     50.13472356	   -213.59175109	      4.38191643	     -0.28864354	      1.11491762	     21.53255603	    -55.60607486	    252.49843989	      0.00445680	     -0.02371068	     -0.47464580	      0.07411006	     17.28677453	     -7.57730700	      0.04409683	      0.07258454	     -0.02308649	     -0.00942280	     22.38078169	     25.15608169	      0.00000000	      0.00000000	     -0.00000000	      0.00000000	     -0.00490675	      0.13141288	     -0.00490675	      0.16861752	     -0.00490675	      0.13837405	     -0.00490675	      0.12642586	     -0.00490675	      0.14747125	     -0.00490675	      0.11632133
      0.23585908	   -123.37993258	   -480.13863232	    139.88527421	    544.46353374	      0.00000000	      0.00000000	      0.00000000	      0.00000000	     -0.00000000	     -0.00000000	     -0.10000000	     -0.00000000	     -0.05000000	      0.00000000	      0.00000000	      0.00000000	     50.10489136	   -213.53185545	      4.38187599	     -0.29034281	      1.11792502	     21.52601489	    -55.57081638	    252.31605455	      0.00445349	     -0.02374252	     -0.47463545	      0.07403007	     17.28571496	     -7.59309934	      0.04410697	      0.07251373	     -0.02308780	     -0.00941781	     22.38429932	     25.20762607	      0.00000000	      0.00000000	     -0.00000000	     -0.00000000	     -0.00492474	      0.13140213	     -0.00492474	      0.16863772	     -0.00492474	      0.13835342	     -0.00492474	      0.12639981	     -0.00492474	      0.14748298	     -0.00492474	      0.11631838
      0.23600025	   -123.44771801	   -480.13863232	    139.96213577	    544.39017368	      0.00000000	      0.00000000	      0.00000000	      0.00000000	     -0.00000000	     -0.00000000	     -0.10000000	     -0.00000000	     -0.05000000	      0.00000000	      0.00000000	      0.00000000	     50.07474947	   -213.47087783	      4.38183488	     -0.29205518	      1.12096357	     21.51934936	    -55.53520774	    252.13103548	      0.00445013	     -0.02377445	     -0.47462501	      0.07394906	     17.28464185	     -7.60902375	      0.04411720	      0.07244200	     -0.02308913	     -0.00941275	     22.38786177	     25.25958746	      0.00000000	      0.00000000	     -0.00000000	      0.00000000	     -0.00494292	      0.13139126	     -0.00494292	      0.16865813	     -0.00494292	      0.13833257	     -0.00494292	      0.12637351	     -0.00494292	      0.14749648	     -0.00494292	      0.11631539
      0.23613990	   -123.51476526	   -480.13863232	    140.03815011	    544.31723705	      0.00000000	      0.00000000	      0.00000000	      0.00000000	     -0.00000000	     -0.00000000	     -0.10000000	     -0.00000000	     -0.05000000	      0.00000000	      0.00000000	      0.00000000	     50.04494433	   -213.41012468	      4.38179398	     -0.29374390	      1.12396810	     21.51270208	    -55.50001261	    251.94734808	      0.00444681	     -0.02380577	     -0.47461469	      0.07386876	     17.28357822	     -7.62473836	      0.04412731	      0.07237090	     -0.02309045	     -0.00940773	     22.39139264	     25.31085067	      0.00000000	      0.00000000	     -0.00000000	      0.00000000	     -0.00496089	      0.13138050	     -0.00496089	      0.16867831	     -0.00496089	      0.13831194	     -0.00496089	      0.12634750	     -0.00496089	      0.14750823	     -0.00496089	      0.11631242
